<?xml version="1.0" encoding="UTF-8" standalone="no"?>
<svg
   xmlns:dc="http://purl.org/dc/elements/1.1/"
   xmlns:cc="http://creativecommons.org/ns#"
   xmlns:rdf="http://www.w3.org/1999/02/22-rdf-syntax-ns#"
   xmlns:svg="http://www.w3.org/2000/svg"
   xmlns="http://www.w3.org/2000/svg"
   xmlns:xlink="http://www.w3.org/1999/xlink"
   xmlns:sodipodi="http://sodipodi.sourceforge.net/DTD/sodipodi-0.dtd"
   xmlns:inkscape="http://www.inkscape.org/namespaces/inkscape"
   viewBox="0 0 240 240"
   id="svg2"
   version="1.1"
   inkscape:version="0.48.5 r10040"
   width="100%"
   height="100%"
   sodipodi:docname="logo.svg"
   inkscape:export-filename="/Volumes/Macintosh HD/Sites/PhysioDOM/HHR-Pro/static/img/logo.png"
   inkscape:export-xdpi="48"
   inkscape:export-ydpi="48">
  <metadata
     id="metadata43">
    <rdf:RDF>
      <cc:Work
         rdf:about="">
        <dc:format>image/svg+xml</dc:format>
        <dc:type
           rdf:resource="http://purl.org/dc/dcmitype/StillImage" />
        <dc:title></dc:title>
      </cc:Work>
    </rdf:RDF>
  </metadata>
  <defs
     id="defs41">
    <linearGradient
       id="linearGradient3824">
      <stop
         style="stop-color:#004b8d;stop-opacity:1;"
         offset="0"
         id="stop3826" />
      <stop
         style="stop-color:#cbd27f;stop-opacity:1;"
         offset="1"
         id="stop3828" />
    </linearGradient>
    <linearGradient
       inkscape:collect="always"
       xlink:href="#linearGradient3824"
       id="linearGradient3830"
       x1="121.58896"
       y1="17.418863"
       x2="123.34484"
       y2="151.69568"
       gradientUnits="userSpaceOnUse" />
  </defs>
  <sodipodi:namedview
     pagecolor="#ffffff"
     bordercolor="#666666"
     borderopacity="1"
     objecttolerance="10"
     gridtolerance="10"
     guidetolerance="10"
     inkscape:pageopacity="0"
     inkscape:pageshadow="2"
     inkscape:window-width="1309"
     inkscape:window-height="947"
     id="namedview39"
     showgrid="false"
     inkscape:zoom="1.280936"
     inkscape:cx="201.02488"
     inkscape:cy="42.156"
     inkscape:window-x="517"
     inkscape:window-y="84"
     inkscape:window-maximized="0"
     inkscape:current-layer="g3805" />
  <g
     id="g3805"
     transform="translate(-1.4267154,0.08729124)">
    <path
       d="m 13.73171,168.79494 a 2.2502,2.2502 0 0 0 -2.25,2.25 v 12.031 a 2.2502,2.2502 0 0 0 0,2.2188 v 10.75 a 2.2502,2.2502 0 1 0 4.5,0 v -9.5938 h 7.3438 a 2.2502,2.2502 0 0 0 0.78125,-0.15625 c 3.8836,-1.3941 6.4551,-4.404 6.5,-7.875 0.0449,-3.471 -2.2233,-6.7853 -6.0625,-9.25 a 2.2502,2.2502 0 0 0 -1.2188,-0.375 h -9.5938 z m 2.25,4.5 6.5,0 c 2.5837,1.8138 3.6422,3.7356 3.625,5.0625 -0.0175,1.3564 -0.87231,2.6402 -3.3125,3.5938 h -6.8125 v -8.6562 z"
       id="path5"
       style="fill:#004b8d;fill-opacity:1"
       inkscape:connector-curvature="0" />
    <path
       d="m 35.44171,169.29494 a 2.2502,2.2502 0 0 0 -2,2.2812 v 12.938 a 2.2502,2.2502 0 0 0 0,0.1875 v 11.094 a 2.2502,2.2502 0 0 0 4.5,0 v -10.438 c 1.67,-2.9467 3.7747,-3.8356 5.4688,-3.7188 1.7466,0.12046 3.2108,1.2201 3.6875,3.4062 v 10.75 a 2.2502,2.2502 0 1 0 4.5,0 v -11.094 a 2.2502,2.2502 0 0 0 -0.0625,-0.4375 c -0.81124,-4.0562 -4.0945,-6.8686 -7.8125,-7.125 -1.9544,-0.13478 -3.9641,0.47172 -5.7812,1.6875 v -7.25 a 2.2502,2.2502 0 0 0 -2.5,-2.2812 z"
       id="path7"
       style="fill:#004b8d;fill-opacity:1"
       inkscape:connector-curvature="0" />
    <path
       d="m 56.98171,177.35794 a 2.2502,2.2502 0 0 0 -2.0625,2.25 l -0.25,11.094 a 2.2502,2.2502 0 0 0 0.0625,0.59375 c 1.1983,5.0016 5.6359,7.3257 9.5312,7 1.1162,-0.0933 2.2144,-0.41447 3.25,-0.875 -0.42096,0.94326 -1.0602,1.6701 -1.8125,2.1875 -1.4917,1.026 -3.5916,1.3111 -5.9375,0.40625 a 2.26047,2.26047 0 1 0 -1.625,4.2188 c 3.5467,1.368 7.3025,1.0351 10.125,-0.90625 2.8005,-1.9262 4.4978,-5.4569 4.2812,-9.5938 v -0.0937 l -0.0312,-2.4688 c 0.007,-0.0553 0.025,-0.10037 0.0312,-0.15625 a 2.2502,2.2502 0 0 0 0,-0.3125 l -0.25,-11.094 a 2.250217,2.250217 0 1 0 -4.5,0.0625 v 0.0312 0.125 l 0.1875,10.938 c -0.34099,1.6206 -2.0598,2.8924 -4.0938,3.0625 -2.0922,0.17495 -3.9437,-0.51509 -4.7188,-3.4062 l 0.25,-10.719 a 2.2502,2.2502 0 0 0 -2.4375,-2.3438 z"
       id="path9"
       style="fill:#004b8d;fill-opacity:1"
       inkscape:connector-curvature="0" />
    <path
       d="m 83.69171,177.20094 c -2.8587,0.27356 -5.8037,2.0849 -6.5,5.25 a 2.2502,2.2502 0 0 0 -0.0312,0.65625 c 0.18095,2.1079 1.6176,3.6668 3.0625,4.5938 1.4449,0.927 3.0219,1.498 4.4688,2.0312 1.4469,0.53323 2.7694,1.0461 3.4688,1.5 0.68104,0.44203 0.61079,0.40674 0.59375,0.625 -4.6e-4,0.006 3.9e-4,0.025 0,0.0312 -0.0435,0.48038 -0.19323,0.7138 -0.53125,1 -0.34632,0.29322 -0.95956,0.57428 -1.8125,0.6875 -1.7059,0.22644 -4.2396,-0.28563 -6.5,-1.875 a 2.2502,2.2502 0 1 0 -2.5625,3.6875 c 3.127,2.1987 6.606,3.0612 9.6562,2.6562 1.5251,-0.20245 2.9614,-0.7335 4.125,-1.7188 1.1636,-0.98525 1.9962,-2.483 2.125,-4.125 a 2.2502,2.2502 0 0 0 0,-0.0312 c 0.1306,-2.0788 -1.2723,-3.8205 -2.6562,-4.7188 -1.3839,-0.89824 -2.9041,-1.4069 -4.3438,-1.9375 -1.4396,-0.53056 -2.8058,-1.0682 -3.625,-1.5938 -0.63136,-0.40505 -0.68909,-0.62722 -0.78125,-0.90625 0.34654,-0.72369 1.003,-1.1902 2.2812,-1.3125 1.5397,-0.14734 3.5097,0.41225 4.8438,1.625 a 2.2502,2.2502 0 1 0 3.0312,-3.3125 c -2.3699,-2.1544 -5.4538,-3.0861 -8.3125,-2.8125 z"
       id="path11"
       style="fill:#004b8d;fill-opacity:1"
       inkscape:connector-curvature="0" />
    <path
       d="m 101.53473,171.63076 c -0.0976,1.78929 -1.18088,3.12558 -2.41957,2.98466 -1.23877,-0.14091 -2.16398,-1.70568 -2.06637,-3.49513 0.0976,-1.7893 1.18086,-3.12555 2.41957,-2.98464 1.16956,0.13287 2.07211,1.54174 2.0733,3.23616"
       id="path13"
       style="fill:#004b8d;fill-opacity:1"
       inkscape:connector-curvature="0" />
    <path
       d="m 99.32171,177.60794 a 2.2502,2.2502 0 0 0 -2.2188,2.2812 v 16.438 a 2.2502,2.2502 0 1 0 4.5,0 v -16.438 a 2.2502,2.2502 0 0 0 -2.2812,-2.2812 z"
       id="path15"
       style="fill:#004b8d;fill-opacity:1"
       inkscape:connector-curvature="0" />
    <path
       d="m 133.73171,169.07594 a 2.2502,2.2502 0 0 0 -2.0312,2.25 v 24.469 a 2.2502,2.2502 0 0 0 2.1562,2.25 l 7.8438,0.25 a 2.2502,2.2502 0 0 0 0.90625,-0.15625 c 6.9025,-2.7704 10.575,-8.5363 10.5,-14.375 -0.075,-5.8387 -3.8077,-11.585 -10.438,-14.5 a 2.2502,2.2502 0 0 0 -0.90625,-0.1875 h -7.8125 a 2.2502,2.2502 0 0 0 -0.21875,0 z m 2.4688,4.5 5.0312,0 c 4.9513,2.3371 7.3251,6.3375 7.375,10.219 0.0501,3.8988 -2.1379,7.7756 -7.3438,10 l -5.0625,-0.15625 v -20.062 z"
       id="path17"
       style="fill:#004b8d;fill-opacity:1"
       inkscape:connector-curvature="0" />
    <path
       d="m 168.17171,177.01994 c -5.8791,-0.4885 -10.84,4.13 -11.269,9.8687 -0.42835,5.7387 3.697,10.997 9.5762,11.486 5.8791,0.4885 10.796,-4.0885 11.224,-9.8272 a 2.3322,2.1712 0 0 0 0,-0.45612 2.3322,2.1712 0 0 0 0,-0.0415 2.3322,2.1712 0 0 0 0.0445,-0.37319 c -0.006,-5.4366 -4.0203,-10.195 -9.5762,-10.657 z m -0.40086,4.3124 c 2.8637,0.23795 5.2967,2.9114 5.3003,6.3856 a 2.3322,2.1712 0 0 0 0.0445,0.16586 2.3322,2.1712 0 0 0 0,0.0415 2.3322,2.1712 0 0 0 -0.0445,0.29026 c -0.27397,3.6704 -3.1523,6.0991 -6.1911,5.8466 -3.0388,-0.25251 -5.5743,-3.2128 -5.3003,-6.8832 0.27397,-3.6704 3.1523,-6.0991 6.1911,-5.8466 z"
       id="path19"
       style="fill:#004b8d;fill-opacity:1"
       inkscape:connector-curvature="0" />
    <path
       d="m 116.17171,177.01994 c -5.8791,-0.4885 -10.84,4.13 -11.269,9.8687 -0.42835,5.7387 3.697,10.997 9.5762,11.486 5.8791,0.4885 10.796,-4.0885 11.224,-9.8272 a 2.3322,2.1712 0 0 0 0,-0.45612 2.3322,2.1712 0 0 0 0,-0.0415 2.3322,2.1712 0 0 0 0.0445,-0.37319 c -0.006,-5.4366 -4.0203,-10.195 -9.5762,-10.657 z m -0.40086,4.3124 c 2.8637,0.23795 5.2967,2.9114 5.3003,6.3856 a 2.3322,2.1712 0 0 0 0.0445,0.16586 2.3322,2.1712 0 0 0 0,0.0415 2.3322,2.1712 0 0 0 -0.0445,0.29026 c -0.27397,3.6704 -3.1523,6.0991 -6.1911,5.8466 -3.0388,-0.25251 -5.5743,-3.2128 -5.3003,-6.8832 0.27397,-3.6704 3.1523,-6.0991 6.1911,-5.8466 z"
       id="path21"
       style="fill:#004b8d;fill-opacity:1"
       inkscape:connector-curvature="0" />
    <path
       d="m 183.60171,177.16994 a 2.2502,2.2502 0 0 0 -2.1562,2.2188 v 5.0625 c 0.005,0.0755 -0.008,0.14259 0,0.21875 v 11.375 a 2.2502,2.2502 0 1 0 4.5,0 v -11.531 a 2.2502,2.2502 0 0 0 0,-0.0625 v -0.28125 c -0.0362,-0.383 0.0154,-0.53256 0.75,-0.96875 0.76085,-0.4518 2.1406,-0.82242 3.5312,-0.84375 1.3907,-0.0213 2.7899,0.31573 3.5938,0.78125 0.80385,0.46552 1.0102,0.75512 1,1.5312 -5e-5,0.0112 0,0.02 0,0.0312 v 11.344 a 2.2502,2.2502 0 0 0 4.5,0 v -11.312 c 1.4e-4,-0.0106 -8e-5,-0.0207 0,-0.0312 0,-3.1934 8.503,-3.2947 8.375,-0.0937 a 2.2502,2.2502 0 0 0 0,0.0937 v 11.344 a 2.2502,2.2502 0 1 0 4.5,0 v -11.25 -0.0937 h -0.0312 c 0.1859,-7.3453 -10.561,-8.8532 -15.188,-4.5938 -0.32014,-0.27562 -0.55446,-0.67128 -0.90625,-0.875 -1.7899,-1.0366 -3.8666,-1.4063 -5.9062,-1.375 -1.5129,0.0232 -2.9734,0.36991 -4.3438,0.90625 a 2.2502,2.2502 0 0 0 -2.2188,-1.5938 z"
       id="path23"
       style="fill:#004b8d;fill-opacity:1"
       inkscape:connector-curvature="0" />
    <path
       d="m 224.10171,167.04294 c -4.5478,-0.38957 -8.4645,3.3186 -8.8125,8.125 -0.34799,4.8064 2.9835,9.1104 7.5312,9.5 4.5478,0.38957 8.4645,-3.3186 8.8125,-8.125 a 1.0001,1.0001 0 0 0 -0.0312,-0.28125 1.0001,1.0001 0 0 0 0,-0.0625 1.0001,1.0001 0 0 0 0,-0.0625 1.0001,1.0001 0 0 0 0.0625,-0.28125 c -0.005,-4.553 -3.2667,-8.4445 -7.5625,-8.8125 z m -0.15625,2 c 3.1867,0.27298 5.7152,3.2014 5.7188,6.8125 a 1.0001,1.0001 0 0 0 0.0312,0.28125 1.0001,1.0001 0 0 0 -0.0625,0.25 c -0.27617,3.8143 -3.2786,6.5706 -6.6562,6.2812 -3.3777,-0.28934 -5.9637,-3.5295 -5.6875,-7.3438 0.27617,-3.8143 3.2786,-6.5706 6.6562,-6.2812 z"
       id="path25"
       style="fill:#004b8d;fill-opacity:1"
       inkscape:connector-curvature="0" />
    <path
       d="m 221.48171,171.38894 a 0.85009,0.85009 0 0 0 -0.84375,0.875 v 7.125 a 0.85009,0.85009 0 1 0 1.6875,0 v -2.2812 h 1.625 l 1.4375,2.5 a 0.85009,0.85009 0 1 0 1.4688,-0.84375 l -1.2812,-2.2188 c 0.17069,-0.15947 0.3573,-0.31219 0.46875,-0.5 0.32349,-0.54514 0.45473,-1.1887 0.46875,-1.8125 0.014,-0.62382 -0.0735,-1.2544 -0.40625,-1.8125 -0.33277,-0.55813 -1.0157,-1.0312 -1.7812,-1.0312 h -2.8438 z m 0.84375,1.7188 2,0 c 0.17192,0 0.20442,0.006 0.3125,0.1875 0.10808,0.18127 0.1958,0.53677 0.1875,0.90625 -0.008,0.36948 -0.12148,0.75217 -0.25,0.96875 -0.12054,0.20313 -0.16128,0.24182 -0.25,0.25 h -0.0312 -1.9688 v -2.3125 z"
       id="path27"
       style="fill:#004b8d;fill-opacity:1"
       inkscape:connector-curvature="0" />
    <path
       d="m 99.29171,203.91994 a 1.2501,1.2501 0 0 0 -1.0625,1.2188 v 5.4688 h -5.8438 v -5.3438 a 1.2501,1.2501 0 1 0 -2.5,0 v 6.5 a 1.2501,1.2501 0 0 0 0,0.0937 v 6.6875 a 1.2501,1.2501 0 0 0 2.5,0 v -5.4375 h 5.8438 v 5.4375 a 1.2501,1.2501 0 1 0 2.5,0 v -6.625 a 1.2501,1.2501 0 0 0 0,-0.0625 v -6.7188 a 1.2501,1.2501 0 0 0 -1.4375,-1.2188 z"
       id="path29"
       style="fill:#004b8d;fill-opacity:1"
       inkscape:connector-curvature="0" />
    <path
       d="m 106.04171,203.66994 a 1.2365,1.2365 0 0 0 -1,1.2188 v 13.75 a 1.2365,1.2365 0 0 0 1.1875,1.25 l 4.2188,0.125 a 1.2365,1.2365 0 0 0 0.53125,-0.0937 c 3.73,-1.5632 5.6962,-4.7854 5.6562,-8.0312 -0.0399,-3.2459 -2.0434,-6.4805 -5.625,-8.125 a 1.2365,1.2365 0 0 0 -0.5,-0.0937 h -4.2188 a 1.2365,1.2365 0 0 0 -0.25,0 z m 1.4688,2.4688 2.6562,0 c 2.655,1.305 3.9415,3.5675 3.9688,5.7812 0.0273,2.2178 -1.1629,4.3818 -3.9375,5.625 l -2.6875,-0.0937 v -11.312 z"
       id="path31"
       style="fill:#004b8d;fill-opacity:1"
       inkscape:connector-curvature="0" />
    <path
       d="m 120.69171,204.16994 a 1.5935,1.5935 0 0 0 -1.4062,1.625 v 12.688 a 1.5938,1.5938 0 0 0 3.1875,0 v -12.688 a 1.5935,1.5935 0 0 0 -1.7812,-1.625 z"
       id="path33"
       style="fill:#004b8d;fill-opacity:1"
       inkscape:connector-curvature="0" />
    <path
       d="m 138.44171,204.01394 a 1.2501,1.2501 0 0 0 -1,0.5625 l -4.4062,6.375 -4.6562,-6.2812 a 1.2501,1.2501 0 0 0 -2.25,0.71875 v 13.156 a 1.2501,1.2501 0 1 0 2.5,0 v -9.3438 l 3.4062,4.6562 a 1.2501,1.2501 0 0 0 2.0312,-0.0312 l 3.1562,-4.5625 v 9.4062 a 1.2501,1.2501 0 1 0 2.5,0 v -13.406 a 1.2501,1.2501 0 0 0 -1.2812,-1.25 z"
       id="path35"
       style="fill:#004b8d;fill-opacity:1"
       inkscape:connector-curvature="0" />
    <path
       d="m 121.4189,19.761302 -75.55582,50.616103 28.57899,82.000105 59.96298,0.0491 c -0.008,-0.16383 -0.008,-0.32807 0,-0.4919 v -24.79175 l -12.69101,-7.82129 -15.49493,9.19861 c -2.16357,1.28832 -5.30433,0.49171 -6.59224,-1.67199 -1.28794,-2.16373 -0.49078,-5.30433 1.67325,-6.59193 l 18.00432,-10.67415 c 0.6717,-0.38776 1.43855,-0.60928 2.21347,-0.63947 0.95937,-0.053 1.93312,0.19042 2.75464,0.68866 l 17.41246,10.67431 c 1.39724,0.8472 2.30414,2.44879 2.31201,4.08284 v 27.5464 c 0.008,0.16383 0.008,0.32807 0,0.4919 l 23.70879,0.0491 29.02288,-81.95131 z m -0.88542,30.54658 c 0.0656,-10e-4 0.13112,-10e-4 0.19676,0 0.16381,-0.009 0.32808,-0.009 0.4919,0 0.77537,0.027 1.54323,0.24884 2.21347,0.63947 l 53.27315,31.039283 c 2.27486,1.162348 3.21836,4.358469 1.93942,6.569893 -1.27889,2.211425 -4.51965,2.987603 -6.66166,1.595645 L 121.07449,60.490218 70.50718,88.971613 c -2.15743,1.400333 -5.42522,0.596513 -6.68669,-1.644913 -1.26162,-2.241332 -0.2535,-5.451982 2.06299,-6.569893 l 52.87963,-29.809925 c 0.53956,-0.32874 1.14573,-0.54764 1.77084,-0.63947 z m 1.13137,26.365841 c 14.53851,-0.279037 29.01186,4.343987 40.33579,13.969956 1.9188,1.635469 2.17663,4.869416 0.54107,6.788216 -1.63547,1.9188 -4.86941,2.17664 -6.78822,0.54109 -18.75358,-15.942276 -48.99322,-15.432117 -68.52125,1.42651 -1.9059,1.648385 -5.13985,1.414035 -6.78822,-0.4919 -1.64838,-1.90593 -1.41403,-5.13984 0.4919,-6.788216 11.56271,-9.981711 26.19111,-15.166572 40.72931,-15.445656 z m 0.59028,16.527835 c 11.99574,0.147791 23.73869,5.283557 32.46539,15.347282 1.80641,1.8667 1.66175,5.25302 -0.29733,6.95885 -1.95908,1.70583 -5.33298,1.3835 -6.93366,-0.66252 -14.06551,-16.222465 -36.37383,-16.579785 -52.24055,-0.4919 -1.75432,1.83286 -5.03108,1.88056 -6.83796,0.0996 -1.80689,-1.78091 -1.80673,-5.05799 5e-4,-6.83859 9.61464,-9.748905 21.84665,-14.560394 33.84271,-14.412745 z"
       id="path37"
       style="fill:url(#linearGradient3830);fill-opacity:1"
       inkscape:connector-curvature="0" />
  </g>
</svg>
