<?xml version="1.0" encoding="UTF-8" standalone="no"?>
<svg
   xmlns:dc="http://purl.org/dc/elements/1.1/"
   xmlns:cc="http://creativecommons.org/ns#"
   xmlns:rdf="http://www.w3.org/1999/02/22-rdf-syntax-ns#"
   xmlns:svg="http://www.w3.org/2000/svg"
   xmlns="http://www.w3.org/2000/svg"
   xmlns:sodipodi="http://sodipodi.sourceforge.net/DTD/sodipodi-0.dtd"
   xmlns:inkscape="http://www.inkscape.org/namespaces/inkscape"
   version="1.1"
   viewBox="0 0 95.844 84.312"
   id="svg2"
   inkscape:version="0.48.5 r10040"
   width="100%"
   height="100%"
   sodipodi:docname="logo-mini.svg">
  <metadata
     id="metadata11">
    <rdf:RDF>
      <cc:Work
         rdf:about="">
        <dc:format>image/svg+xml</dc:format>
        <dc:type
           rdf:resource="http://purl.org/dc/dcmitype/StillImage" />
      </cc:Work>
    </rdf:RDF>
  </metadata>
  <defs
     id="defs9" />
  <sodipodi:namedview
     pagecolor="#ffffff"
     bordercolor="#666666"
     borderopacity="1"
     objecttolerance="10"
     gridtolerance="10"
     guidetolerance="10"
     inkscape:pageopacity="0"
     inkscape:pageshadow="2"
     inkscape:window-width="1330"
     inkscape:window-height="911"
     id="namedview7"
     showgrid="false"
     inkscape:zoom="2.7991271"
     inkscape:cx="63.283932"
     inkscape:cy="42.156"
     inkscape:window-x="0"
     inkscape:window-y="0"
     inkscape:window-maximized="0"
     inkscape:current-layer="svg2" />
  <g
     id="logo"
     fill="white">
    <path
       d="m47.803-0.088525-48,32.156,18.156,52.094,38.094,0.0312c-0.005-0.10408-0.005-0.20842,0-0.3125v-15.75l-8.0625-4.9688-9.8438,5.8438c-1.3745,0.81846-3.3698,0.31238-4.188-1.0622-0.81822-1.3746-0.31179-3.3698,1.063-4.1878l11.438-6.7812c0.42673-0.24634,0.9139-0.38707,1.4062-0.40625,0.60948-0.0337,1.2281,0.12097,1.75,0.4375l11.062,6.7813c0.88765,0.53822,1.4638,1.5557,1.4688,2.5938v17.5c0.005,0.10408,0.005,0.20842,0,0.3125l15.062,0.0312,18.438-52.063zm-0.5625,19.406c0.0417-0.000868,0.0833-0.000868,0.125,0,0.10407-0.0054,0.20843-0.0054,0.3125,0,0.49259,0.01716,0.9804,0.15808,1.4062,0.40625l33.844,19.719c1.4452,0.73843,2.0446,2.7689,1.2321,4.1738-0.81247,1.4049-2.8713,1.898-4.2321,1.0137l-32.344-18.844-32.125,18.094c-1.3706,0.88962-3.4466,0.37896-4.248-1.045-0.8015-1.4239-0.16105-3.4636,1.3106-4.1738l33.594-18.938c0.34278-0.20885,0.72787-0.34791,1.125-0.40625zm0.71875,16.75c9.2362-0.17727,18.431,2.7597,25.625,8.875,1.219,1.039,1.3828,3.0935,0.34374,4.3125-1.039,1.219-3.0935,1.3828-4.3125,0.34375-11.914-10.128-31.125-9.8039-43.531,0.90625-1.2108,1.0472-3.2653,0.89832-4.3125-0.3125s-0.89832-3.2653,0.3125-4.3125c7.3457-6.3413,16.639-9.6352,25.875-9.8125zm0.375,10.5c7.6208,0.09389,15.081,3.3566,20.625,9.75,1.1476,1.1859,1.0557,3.3372-0.18889,4.4209s-3.388,0.87893-4.4049-0.42089c-8.9357-10.306-23.108-10.533-33.188-0.3125-1.1145,1.1644-3.1962,1.1947-4.3441,0.0633s-1.1478-3.2133,0.00032-4.3445c6.1081-6.1934,13.879-9.2501,21.5-9.1563z"
       id="path5"
       style="fill:#000000;fill-opacity:1" />
  </g>
</svg>
