<svg xmlns="http://www.w3.org/2000/svg" viewBox="0 0 333.35 84.312">
<g id="logo" fill="white">
<path d="m115.22,17.791a2.2502,2.2502,0,0,0,-2.25,2.25v12.031a2.2502,2.2502,0,0,0,0,2.2188v10.75a2.2502,2.2502,0,1,0,4.5,0v-9.5938h7.3438a2.2502,2.2502,0,0,0,0.78125,-0.15625c3.8836-1.3941,6.4551-4.404,6.5-7.875s-2.2233-6.7853-6.0625-9.25a2.2502,2.2502,0,0,0,-1.2188,-0.375h-9.5938zm2.25,4.5,6.5,0c2.5837,1.8138,3.6422,3.7356,3.625,5.0625-0.0175,1.3564-0.87231,2.6402-3.3125,3.5938h-6.8125v-8.6562z" />
<path d="m136.93,18.291a2.2502,2.2502,0,0,0,-2,2.2812v12.938a2.2502,2.2502,0,0,0,0,0.1875v11.094a2.2502,2.2502,0,0,0,4.5,0v-10.438c1.67-2.9467,3.7747-3.8356,5.4688-3.7188,1.7466,0.12046,3.2108,1.2201,3.6875,3.4062v10.75a2.2502,2.2502,0,1,0,4.5,0v-11.094a2.2502,2.2502,0,0,0,-0.0625,-0.4375c-0.81124-4.0562-4.0945-6.8686-7.8125-7.125-1.9544-0.13478-3.9641,0.47172-5.7812,1.6875v-7.25a2.2502,2.2502,0,0,0,-2.5,-2.2812z" />
<path d="m158.47,26.354a2.2502,2.2502,0,0,0,-2.0625,2.25l-0.25,11.094a2.2502,2.2502,0,0,0,0.0625,0.59375c1.1983,5.0016,5.6359,7.3257,9.5312,7,1.1162-0.0933,2.2144-0.41447,3.25-0.875-0.42096,0.94326-1.0602,1.6701-1.8125,2.1875-1.4917,1.026-3.5916,1.3111-5.9375,0.40625a2.2604,2.2604,0,1,0,-1.625,4.2188c3.5467,1.368,7.3025,1.0351,10.125-0.90625,2.8005-1.9262,4.4978-5.4569,4.2812-9.5938v-0.0937l-0.0312-2.4688c0.007-0.0553,0.025-0.10037,0.0312-0.15625a2.2502,2.2502,0,0,0,0,-0.3125l-0.25-11.094a2.2502,2.2502,0,0,0,-4.5,0.0625v0.0312,0.125l0.1875,10.938c-0.34099,1.6206-2.0598,2.8924-4.0938,3.0625-2.0922,0.17495-3.9437-0.51509-4.7188-3.4062l0.25-10.719a2.2502,2.2502,0,0,0,-2.4375,-2.3438z" />
<path d="m185.18,26.197c-2.8587,0.27356-5.8037,2.0849-6.5,5.25a2.2502,2.2502,0,0,0,-0.0312,0.65625c0.18095,2.1079,1.6176,3.6668,3.0625,4.5938s3.0219,1.498,4.4688,2.0312c1.4469,0.53323,2.7694,1.0461,3.4688,1.5,0.68104,0.44203,0.61079,0.40674,0.59375,0.625-0.00046,0.006,0.00039,0.025,0,0.0312-0.0435,0.48038-0.19323,0.7138-0.53125,1-0.34632,0.29322-0.95956,0.57428-1.8125,0.6875-1.7059,0.22644-4.2396-0.28563-6.5-1.875a2.2502,2.2502,0,1,0,-2.5625,3.6875c3.127,2.1987,6.606,3.0612,9.6562,2.6562,1.5251-0.20245,2.9614-0.7335,4.125-1.7188,1.1636-0.98525,1.9962-2.483,2.125-4.125a2.2502,2.2502,0,0,0,0,-0.0312c0.1306-2.0788-1.2723-3.8205-2.6562-4.7188-1.3839-0.89824-2.9041-1.4069-4.3438-1.9375-1.4396-0.53056-2.8058-1.0682-3.625-1.5938-0.63136-0.40505-0.68909-0.62722-0.78125-0.90625,0.34654-0.72369,1.003-1.1902,2.2812-1.3125,1.5397-0.14734,3.5097,0.41225,4.8438,1.625a2.2502,2.2502,0,1,0,3.0312,-3.3125c-2.3699-2.1544-5.4538-3.0861-8.3125-2.8125z"/>
<path d="m208.09,212.25c-0.0493,0.55617-0.59645,0.97153-1.2221,0.92773-0.62569-0.0438-1.093-0.53018-1.0437-1.0864,0.0493-0.55617,0.59644-0.97152,1.2221-0.92772,0.59073,0.0413,1.0466,0.47922,1.0472,1.0059" transform="matrix(1.9798496,0,0,3.2171731,-208.96388,-662.21817)" />
<path d="m200.81,26.604a2.2502,2.2502,0,0,0,-2.2188,2.2812v16.438a2.2502,2.2502,0,1,0,4.5,0v-16.438a2.2502,2.2502,0,0,0,-2.2812,-2.2812z"/>
<path d="m235.22,18.072a2.2502,2.2502,0,0,0,-2.0312,2.25v24.469a2.2502,2.2502,0,0,0,2.1562,2.25l7.8438,0.25a2.2502,2.2502,0,0,0,0.90625,-0.15625c6.9025-2.7704,10.575-8.5363,10.5-14.375s-3.8077-11.585-10.438-14.5a2.2502,2.2502,0,0,0,-0.90625,-0.1875h-7.8125a2.2502,2.2502,0,0,0,-0.21875,0zm2.4688,4.5,5.0312,0c4.9513,2.3371,7.3251,6.3375,7.375,10.219,0.0501,3.8988-2.1379,7.7756-7.3438,10l-5.0625-0.15625v-20.062z" />
<path d="m269.66,26.016c-5.8791-0.4885-10.84,4.13-11.269,9.8687-0.42835,5.7387,3.697,10.997,9.5762,11.486,5.8791,0.4885,10.796-4.0885,11.224-9.8272a2.3322,2.1712,0,0,0,0,-0.45612,2.3322,2.1712,0,0,0,0,-0.0415,2.3322,2.1712,0,0,0,0.0445,-0.37319c-0.006-5.4366-4.0203-10.195-9.5762-10.657zm-0.40086,4.3124c2.8637,0.23795,5.2967,2.9114,5.3003,6.3856a2.3322,2.1712,0,0,0,0.0445,0.16586,2.3322,2.1712,0,0,0,0,0.0415,2.3322,2.1712,0,0,0,-0.0445,0.29026c-0.27397,3.6704-3.1523,6.0991-6.1911,5.8466-3.0388-0.25251-5.5743-3.2128-5.3003-6.8832,0.27397-3.6704,3.1523-6.0991,6.1911-5.8466z" />
<path d="m217.66,26.016c-5.8791-0.4885-10.84,4.13-11.269,9.8687-0.42835,5.7387,3.697,10.997,9.5762,11.486,5.8791,0.4885,10.796-4.0885,11.224-9.8272a2.3322,2.1712,0,0,0,0,-0.45612,2.3322,2.1712,0,0,0,0,-0.0415,2.3322,2.1712,0,0,0,0.0445,-0.37319c-0.006-5.4366-4.0203-10.195-9.5762-10.657zm-0.40086,4.3124c2.8637,0.23795,5.2967,2.9114,5.3003,6.3856a2.3322,2.1712,0,0,0,0.0445,0.16586,2.3322,2.1712,0,0,0,0,0.0415,2.3322,2.1712,0,0,0,-0.0445,0.29026c-0.27397,3.6704-3.1523,6.0991-6.1911,5.8466-3.0388-0.25251-5.5743-3.2128-5.3003-6.8832,0.27397-3.6704,3.1523-6.0991,6.1911-5.8466z" />
<path d="m285.09,26.166a2.2502,2.2502,0,0,0,-2.1562,2.2188v5.0625c0.005,0.0755-0.008,0.14259,0,0.21875v11.375a2.2502,2.2502,0,1,0,4.5,0v-11.531a2.2502,2.2502,0,0,0,0,-0.0625v-0.28125c-0.0362-0.383,0.0154-0.53256,0.75-0.96875,0.76085-0.4518,2.1406-0.82242,3.5312-0.84375,1.3907-0.0213,2.7899,0.31573,3.5938,0.78125,0.80385,0.46552,1.0102,0.75512,1,1.5312-0.00005,0.0112,0,0.02,0,0.0312v11.344a2.2502,2.2502,0,0,0,4.5,0v-11.312c0.00014-0.0106-0.00008-0.0207,0-0.0312,0-3.1934,8.503-3.2947,8.375-0.0937a2.2502,2.2502,0,0,0,0,0.0937v11.344a2.2502,2.2502,0,1,0,4.5,0v-11.25-0.0937h-0.0312c0.1859-7.3453-10.561-8.8532-15.188-4.5938-0.32014-0.27562-0.55446-0.67128-0.90625-0.875-1.7899-1.0366-3.8666-1.4063-5.9062-1.375-1.5129,0.0232-2.9734,0.36991-4.3438,0.90625a2.2502,2.2502,0,0,0,-2.2188,-1.5938z" />
<path d="m325.59,16.039c-4.5478-0.38957-8.4645,3.3186-8.8125,8.125-0.34799,4.8064,2.9835,9.1104,7.5312,9.5,4.5478,0.38957,8.4645-3.3186,8.8125-8.125a1.0001,1.0001,0,0,0,-0.0312,-0.28125,1.0001,1.0001,0,0,0,0,-0.0625,1.0001,1.0001,0,0,0,0,-0.0625,1.0001,1.0001,0,0,0,0.0625,-0.28125c-0.005-4.553-3.2667-8.4445-7.5625-8.8125zm-0.15625,2c3.1867,0.27298,5.7152,3.2014,5.7188,6.8125a1.0001,1.0001,0,0,0,0.0312,0.28125,1.0001,1.0001,0,0,0,-0.0625,0.25c-0.27617,3.8143-3.2786,6.5706-6.6562,6.2812-3.3777-0.28934-5.9637-3.5295-5.6875-7.3438,0.27617-3.8143,3.2786-6.5706,6.6562-6.2812z" />
<path d="m322.97,20.385a0.85009,0.85009,0,0,0,-0.84375,0.875v7.125a0.85009,0.85009,0,1,0,1.6875,0v-2.2812h1.625l1.4375,2.5a0.85009,0.85009,0,1,0,1.4688,-0.84375l-1.2812-2.2188c0.17069-0.15947,0.3573-0.31219,0.46875-0.5,0.32349-0.54514,0.45473-1.1887,0.46875-1.8125,0.014-0.62382-0.0735-1.2544-0.40625-1.8125-0.33277-0.55813-1.0157-1.0312-1.7812-1.0312h-2.8438zm0.84375,1.7188,2,0c0.17192,0,0.20442,0.006,0.3125,0.1875,0.10808,0.18127,0.1958,0.53677,0.1875,0.90625-0.008,0.36948-0.12148,0.75217-0.25,0.96875-0.12054,0.20313-0.16128,0.24182-0.25,0.25h-0.0312-1.9688v-2.3125z" />
<path d="m200.78,52.916a1.2501,1.2501,0,0,0,-1.0625,1.2188v5.4688h-5.8438v-5.3438a1.2501,1.2501,0,1,0,-2.5,0v6.5a1.2501,1.2501,0,0,0,0,0.0937v6.6875a1.2501,1.2501,0,0,0,2.5,0v-5.4375h5.8438v5.4375a1.2501,1.2501,0,1,0,2.5,0v-6.625a1.2501,1.2501,0,0,0,0,-0.0625v-6.7188a1.2501,1.2501,0,0,0,-1.4375,-1.2188z" />
<path d="m207.53,52.666a1.2365,1.2365,0,0,0,-1,1.2188v13.75a1.2365,1.2365,0,0,0,1.1875,1.25l4.2188,0.125a1.2365,1.2365,0,0,0,0.53125,-0.0937c3.73-1.5632,5.6962-4.7854,5.6562-8.0312-0.0399-3.2459-2.0434-6.4805-5.625-8.125a1.2365,1.2365,0,0,0,-0.5,-0.0937h-4.2188a1.2365,1.2365,0,0,0,-0.25,0zm1.4688,2.4688,2.6562,0c2.655,1.305,3.9415,3.5675,3.9688,5.7812,0.0273,2.2178-1.1629,4.3818-3.9375,5.625l-2.6875-0.0937v-11.312z" />
<path d="m222.18,53.166a1.5935,1.5935,0,0,0,-1.4062,1.625v12.688a1.5938,1.5938,0,0,0,3.1875,0v-12.688a1.5935,1.5935,0,0,0,-1.7812,-1.625z" />
<path d="m239.93,53.01a1.2501,1.2501,0,0,0,-1,0.5625l-4.4062,6.375-4.6562-6.2812a1.2501,1.2501,0,0,0,-2.25,0.71875v13.156a1.2501,1.2501,0,1,0,2.5,0v-9.3438l3.4062,4.6562a1.2501,1.2501,0,0,0,2.0312,-0.0312l3.1562-4.5625v9.4062a1.2501,1.2501,0,1,0,2.5,0v-13.406a1.2501,1.2501,0,0,0,-1.2812,-1.25z" />
<path  d="m47.803-0.088525-48,32.156,18.156,52.094,38.094,0.0312c-0.005-0.10408-0.005-0.20842,0-0.3125v-15.75l-8.0625-4.9688-9.8438,5.8438c-1.3745,0.81846-3.3698,0.31238-4.188-1.0622-0.81822-1.3746-0.31179-3.3698,1.063-4.1878l11.438-6.7812c0.42673-0.24634,0.9139-0.38707,1.4062-0.40625,0.60948-0.0337,1.2281,0.12097,1.75,0.4375l11.062,6.7813c0.88765,0.53822,1.4638,1.5557,1.4688,2.5938v17.5c0.005,0.10408,0.005,0.20842,0,0.3125l15.062,0.0312,18.438-52.063zm-0.5625,19.406c0.0417-0.000868,0.0833-0.000868,0.125,0,0.10407-0.0054,0.20843-0.0054,0.3125,0,0.49259,0.01716,0.9804,0.15808,1.4062,0.40625l33.844,19.719c1.4452,0.73843,2.0446,2.7689,1.2321,4.1738-0.81247,1.4049-2.8713,1.898-4.2321,1.0137l-32.344-18.844-32.125,18.094c-1.3706,0.88962-3.4466,0.37896-4.248-1.045-0.8015-1.4239-0.16105-3.4636,1.3106-4.1738l33.594-18.938c0.34278-0.20885,0.72787-0.34791,1.125-0.40625zm0.71875,16.75c9.2362-0.17727,18.431,2.7597,25.625,8.875,1.219,1.039,1.3828,3.0935,0.34374,4.3125-1.039,1.219-3.0935,1.3828-4.3125,0.34375-11.914-10.128-31.125-9.8039-43.531,0.90625-1.2108,1.0472-3.2653,0.89832-4.3125-0.3125s-0.89832-3.2653,0.3125-4.3125c7.3457-6.3413,16.639-9.6352,25.875-9.8125zm0.375,10.5c7.6208,0.09389,15.081,3.3566,20.625,9.75,1.1476,1.1859,1.0557,3.3372-0.18889,4.4209s-3.388,0.87893-4.4049-0.42089c-8.9357-10.306-23.108-10.533-33.188-0.3125-1.1145,1.1644-3.1962,1.1947-4.3441,0.0633s-1.1478-3.2133,0.00032-4.3445c6.1081-6.1934,13.879-9.2501,21.5-9.1563z"/>
</g>
</svg>
